<svg xmlns="http://www.w3.org/2000/svg" viewBox="0 0 512 512" width="100%" height="100%">
  <defs>
    <linearGradient id="iconGrad" gradientUnits="userSpaceOnUse" x1="110" y1="100" x2="410" y2="420">
      <stop offset="0" stop-color="#F2F3F6"/>
      <stop offset="1" stop-color="#C2C7D0"/>
    </linearGradient>
  </defs>
  <g fill="url(#iconGrad)" stroke="url(#iconGrad)" stroke-width="6" stroke-linejoin="round" stroke-linecap="round">
    <!-- spokes -->
    <line x1="256" y1="210" x2="256" y2="144" fill="none"/>
    <line x1="256" y1="302" x2="256" y2="368" fill="none"/>
    <line x1="210" y1="256" x2="140" y2="256" fill="none"/>
    <line x1="302" y1="256" x2="372" y2="256" fill="none"/>
    <!-- central core -->
    <circle cx="256" cy="256" r="40" fill="none"/>
    <circle cx="256" cy="256" r="18" stroke="none"/>
    <!-- top / bottom / left / right hex nodes -->
    <polygon points="256,74 283.71,90 283.71,122 256,138 228.29,122 228.29,90" fill="none"/>
    <polygon points="256,89 270.72,97.5 270.72,114.5 256,123 241.28,114.5 241.28,97.5" stroke="none"/>
    <polygon points="256,374 283.71,390 283.71,422 256,438 228.29,422 228.29,390" fill="none"/>
    <polygon points="256,389 270.72,397.5 270.72,414.5 256,423 241.28,414.5 241.28,397.5" stroke="none"/>
    <polygon points="106,224 133.71,240 133.71,272 106,288 78.29,272 78.29,240" fill="none"/>
    <polygon points="106,239 120.72,247.5 120.72,264.5 106,273 91.28,264.5 91.28,247.5" stroke="none"/>
    <polygon points="406,224 433.71,240 433.71,272 406,288 378.29,272 378.29,240" fill="none"/>
    <polygon points="406,239 420.72,247.5 420.72,264.5 406,273 391.28,264.5 391.28,247.5" stroke="none"/>
  </g>
</svg>